<?xml version="1.0" encoding="UTF-8" standalone="no"?>
<!-- Created with Inkscape (http://www.inkscape.org/) -->

<svg
   xmlns:dc="http://purl.org/dc/elements/1.1/"
   xmlns:cc="http://creativecommons.org/ns#"
   xmlns:rdf="http://www.w3.org/1999/02/22-rdf-syntax-ns#"
   xmlns:svg="http://www.w3.org/2000/svg"
   xmlns="http://www.w3.org/2000/svg"
   xmlns:sodipodi="http://sodipodi.sourceforge.net/DTD/sodipodi-0.dtd"
   xmlns:inkscape="http://www.inkscape.org/namespaces/inkscape"
   width="210mm"
   height="297mm"
   viewBox="0 0 210 297"
   version="1.1"
   id="svg8"
   inkscape:version="0.92.2 (5c3e80d, 2017-08-06)"
   sodipodi:docname="navOpenIconSizedRotated.svg"
   inkscape:export-filename="C:\Users\Jena\Documents\Personal Website\img\logo\logoNavSize.png"
   inkscape:export-xdpi="96"
   inkscape:export-ydpi="96">
  <defs
     id="defs2">
    <filter
       style="color-interpolation-filters:sRGB;"
       inkscape:label="Drop Shadow"
       id="filter1210">
      <feFlood
         flood-opacity="0.498039"
         flood-color="rgb(0,0,0)"
         result="flood"
         id="feFlood1200" />
      <feComposite
         in="flood"
         in2="SourceGraphic"
         operator="in"
         result="composite1"
         id="feComposite1202" />
      <feGaussianBlur
         in="composite1"
         stdDeviation="1.2"
         result="blur"
         id="feGaussianBlur1204" />
      <feOffset
         dx="0.4"
         dy="4.7"
         result="offset"
         id="feOffset1206" />
      <feComposite
         in="SourceGraphic"
         in2="offset"
         operator="over"
         result="composite2"
         id="feComposite1208" />
    </filter>
    <filter
       style="color-interpolation-filters:sRGB;"
       inkscape:label="Drop Shadow"
       id="filter1248">
      <feFlood
         flood-opacity="0.498039"
         flood-color="rgb(0,0,0)"
         result="flood"
         id="feFlood1238" />
      <feComposite
         in="flood"
         in2="SourceGraphic"
         operator="in"
         result="composite1"
         id="feComposite1240" />
      <feGaussianBlur
         in="composite1"
         stdDeviation="1.2"
         result="blur"
         id="feGaussianBlur1242" />
      <feOffset
         dx="0.4"
         dy="4.7"
         result="offset"
         id="feOffset1244" />
      <feComposite
         in="SourceGraphic"
         in2="offset"
         operator="over"
         result="composite2"
         id="feComposite1246" />
    </filter>
    <filter
       style="color-interpolation-filters:sRGB;"
       inkscape:label="Drop Shadow"
       id="filter1435">
      <feFlood
         flood-opacity="0.498039"
         flood-color="rgb(0,0,0)"
         result="flood"
         id="feFlood1425" />
      <feComposite
         in="flood"
         in2="SourceGraphic"
         operator="in"
         result="composite1"
         id="feComposite1427" />
      <feGaussianBlur
         in="composite1"
         stdDeviation="1.2"
         result="blur"
         id="feGaussianBlur1429" />
      <feOffset
         dx="0.4"
         dy="4.7"
         result="offset"
         id="feOffset1431" />
      <feComposite
         in="SourceGraphic"
         in2="offset"
         operator="over"
         result="composite2"
         id="feComposite1433" />
    </filter>
  </defs>
  <sodipodi:namedview
     id="base"
     pagecolor="#ffffff"
     bordercolor="#666666"
     borderopacity="1.0"
     inkscape:pageopacity="0.0"
     inkscape:pageshadow="2"
     inkscape:zoom="0.55778664"
     inkscape:cx="-387.63154"
     inkscape:cy="463.7774"
     inkscape:document-units="mm"
     inkscape:current-layer="layer4"
     showgrid="false"
     inkscape:window-width="1366"
     inkscape:window-height="706"
     inkscape:window-x="-8"
     inkscape:window-y="-8"
     inkscape:window-maximized="1" />
  <metadata
     id="metadata5">
    <rdf:RDF>
      <cc:Work
         rdf:about="">
        <dc:format>image/svg+xml</dc:format>
        <dc:type
           rdf:resource="http://purl.org/dc/dcmitype/StillImage" />
        <dc:title />
      </cc:Work>
    </rdf:RDF>
  </metadata>
  <g
     inkscape:label="Layer 2 copy"
     id="g826"
     inkscape:groupmode="layer"
     style="display:inline" />
  <g
     inkscape:groupmode="layer"
     id="layer3"
     inkscape:label="Layer 2"
     style="display:inline">
    <path
       style="fill:#ffffff;fill-opacity:1;stroke:#ffffff;stroke-width:0.40273517;stroke-miterlimit:4;stroke-dasharray:none;stroke-opacity:1"
       d="m -12.381628,145.11253 c -0.919314,-0.06 -0.813652,4.20913 0.317809,5.24568 3.8507909,3.52778 14.1986185,10.58333 14.1986185,10.58333 0,0 10.3473195,-7.05554 14.1980995,-10.58333 1.248503,-1.14378 1.248506,-6.22358 0,-5.0798 -3.85079,3.52778 -14.1980995,10.58334 -14.1980995,10.58334 0,0 -10.3478276,-7.05557 -14.1986185,-10.58334 -0.117046,-0.10723 -0.222708,-0.15967 -0.317809,-0.16588 z m 0,10.58334 c -0.919314,-0.06 -0.813652,4.20912 0.317809,5.24567 3.8507909,3.52778 14.1986185,10.58333 14.1986185,10.58333 0,0 10.3473195,-7.05554 14.1980995,-10.58333 1.248503,-1.14378 1.248506,-6.22357 0,-5.07979 -3.85079,3.52778 -14.1980995,10.58333 -14.1980995,10.58333 0,0 -10.3478276,-7.05556 -14.1986185,-10.58333 -0.117046,-0.10723 -0.222708,-0.15968 -0.317809,-0.16588 z"
       id="rect1216"
       inkscape:connector-curvature="0" />
  </g>
  <g
     inkscape:groupmode="layer"
     id="layer4"
     inkscape:label="Layer 3"
     style="display:inline">
    <path
       style="display:inline;fill:#ffffff;fill-opacity:1;stroke:#ffffff;stroke-width:0.40273517;stroke-miterlimit:4;stroke-dasharray:none;stroke-opacity:1;filter:url(#filter1435)"
       d="m -15.464883,234.33188 c -0.919314,0.06 -0.813652,-4.20913 0.317809,-5.24568 3.850791,-3.52778 14.1986191,-10.58333 14.1986191,-10.58333 0,0 10.34732,7.05554 14.1980999,10.58333 1.248503,1.14378 1.248505,6.22358 0,5.0798 -3.8507899,-3.52778 -14.1980999,-10.58334 -14.1980999,-10.58334 0,0 -10.3478281,7.05557 -14.1986191,10.58334 -0.117046,0.10723 -0.222708,0.15967 -0.317809,0.16588 z m 0,-10.58334 c -0.919314,0.06 -0.813652,-4.20912 0.317809,-5.24567 3.850791,-3.52778 14.1986191,-10.58333 14.1986191,-10.58333 0,0 10.34732,7.05554 14.1980999,10.58333 1.248503,1.14378 1.248505,6.22357 0,5.07979 -3.8507899,-3.52778 -14.1980999,-10.58333 -14.1980999,-10.58333 0,0 -10.3478281,7.05556 -14.1986191,10.58333 -0.117046,0.10723 -0.222708,0.15968 -0.317809,0.16588 z"
       id="rect1216-0"
       inkscape:connector-curvature="0"
       inkscape:export-xdpi="96"
       inkscape:export-ydpi="96" />
  </g>
</svg>
