<?xml version="1.0" encoding="UTF-8" standalone="no"?>
<!-- Created with Inkscape (http://www.inkscape.org/) -->

<svg
   xmlns:dc="http://purl.org/dc/elements/1.1/"
   xmlns:cc="http://creativecommons.org/ns#"
   xmlns:rdf="http://www.w3.org/1999/02/22-rdf-syntax-ns#"
   xmlns:svg="http://www.w3.org/2000/svg"
   xmlns="http://www.w3.org/2000/svg"
   xmlns:sodipodi="http://sodipodi.sourceforge.net/DTD/sodipodi-0.dtd"
   xmlns:inkscape="http://www.inkscape.org/namespaces/inkscape"
   width="210mm"
   height="297mm"
   viewBox="0 0 210 297"
   version="1.1"
   id="svg8"
   inkscape:version="0.92.2 (5c3e80d, 2017-08-06)"
   sodipodi:docname="navOpenIcon.svg"
   inkscape:export-filename="C:\Users\Jena\Documents\Personal Website\img\logo\logoNavSize.png"
   inkscape:export-xdpi="96"
   inkscape:export-ydpi="96">
  <defs
     id="defs2">
    <filter
       style="color-interpolation-filters:sRGB;"
       inkscape:label="Drop Shadow"
       id="filter1210">
      <feFlood
         flood-opacity="0.498039"
         flood-color="rgb(0,0,0)"
         result="flood"
         id="feFlood1200" />
      <feComposite
         in="flood"
         in2="SourceGraphic"
         operator="in"
         result="composite1"
         id="feComposite1202" />
      <feGaussianBlur
         in="composite1"
         stdDeviation="1.2"
         result="blur"
         id="feGaussianBlur1204" />
      <feOffset
         dx="0.4"
         dy="4.7"
         result="offset"
         id="feOffset1206" />
      <feComposite
         in="SourceGraphic"
         in2="offset"
         operator="over"
         result="composite2"
         id="feComposite1208" />
    </filter>
    <filter
       style="color-interpolation-filters:sRGB;"
       inkscape:label="Drop Shadow"
       id="filter1248">
      <feFlood
         flood-opacity="0.498039"
         flood-color="rgb(0,0,0)"
         result="flood"
         id="feFlood1238" />
      <feComposite
         in="flood"
         in2="SourceGraphic"
         operator="in"
         result="composite1"
         id="feComposite1240" />
      <feGaussianBlur
         in="composite1"
         stdDeviation="1.2"
         result="blur"
         id="feGaussianBlur1242" />
      <feOffset
         dx="0.4"
         dy="4.7"
         result="offset"
         id="feOffset1244" />
      <feComposite
         in="SourceGraphic"
         in2="offset"
         operator="over"
         result="composite2"
         id="feComposite1246" />
    </filter>
  </defs>
  <sodipodi:namedview
     id="base"
     pagecolor="#ffffff"
     bordercolor="#666666"
     borderopacity="1.0"
     inkscape:pageopacity="0.0"
     inkscape:pageshadow="2"
     inkscape:zoom="0.55778664"
     inkscape:cx="-96.301512"
     inkscape:cy="463.7774"
     inkscape:document-units="mm"
     inkscape:current-layer="layer4"
     showgrid="false"
     inkscape:window-width="1366"
     inkscape:window-height="706"
     inkscape:window-x="-8"
     inkscape:window-y="-8"
     inkscape:window-maximized="1" />
  <metadata
     id="metadata5">
    <rdf:RDF>
      <cc:Work
         rdf:about="">
        <dc:format>image/svg+xml</dc:format>
        <dc:type
           rdf:resource="http://purl.org/dc/dcmitype/StillImage" />
        <dc:title></dc:title>
      </cc:Work>
    </rdf:RDF>
  </metadata>
  <g
     inkscape:label="Layer 2 copy"
     id="g826"
     inkscape:groupmode="layer"
     style="display:inline">
    <path
       style="fill:#222222;fill-opacity:1;stroke:#ffffff;stroke-width:0.26458332;stroke-miterlimit:4;stroke-dasharray:none;stroke-opacity:1"
       d="M -178.35373,85.44211 H -2.8460732 V 212.56658 H -178.35373 Z"
       id="rect1213"
       inkscape:connector-curvature="0" />
  </g>
  <g
     inkscape:groupmode="layer"
     id="layer3"
     inkscape:label="Layer 2"
     style="display:none">
    <path
       style="fill:#ffffff;fill-opacity:1;stroke:#ffffff;stroke-width:1.52214873;stroke-miterlimit:4;stroke-dasharray:none;stroke-opacity:1"
       d="m -398.18555,483.91602 c -3.47457,-0.22667 -3.07522,15.9085 1.20117,19.82617 14.55417,13.33334 53.66407,40 53.66407,40 0,0 39.10798,-26.66662 53.66211,-40 4.71875,-4.32295 4.71876,-23.52217 0,-19.19922 -14.55417,13.33334 -53.66211,40 -53.66211,40 0,0 -39.1099,-26.6667 -53.66407,-40 -0.44238,-0.40528 -0.84173,-0.60351 -1.20117,-0.62695 z m 0,40 c -3.47457,-0.22667 -3.07522,15.9085 1.20117,19.82617 14.55417,13.33334 53.66407,40 53.66407,40 0,0 39.10798,-26.66662 53.66211,-40 4.71875,-4.32295 4.71876,-23.52217 0,-19.19922 -14.55417,13.33334 -53.66211,40 -53.66211,40 0,0 -39.1099,-26.6667 -53.66407,-40 -0.44238,-0.40528 -0.84173,-0.60351 -1.20117,-0.62695 z"
       transform="scale(0.26458333)"
       id="rect1216"
       inkscape:connector-curvature="0" />
  </g>
  <g
     inkscape:groupmode="layer"
     id="layer4"
     inkscape:label="Layer 3">
    <path
       inkscape:connector-curvature="0"
       style="fill:#ffffff;fill-opacity:1;stroke:#ffffff;stroke-width:0.40273517;stroke-miterlimit:4;stroke-dasharray:none;stroke-opacity:1;filter:url(#filter1248)"
       d="m -105.35326,128.03611 c -0.91931,-0.06 -0.81365,4.20913 0.31781,5.24568 3.85079,3.52778 14.198619,10.58333 14.198619,10.58333 0,0 10.34732,-7.05554 14.1981,-10.58333 1.248503,-1.14378 1.248505,-6.22358 0,-5.0798 -3.850791,3.52778 -14.1981,10.58334 -14.1981,10.58334 0,0 -10.347829,-7.05557 -14.198619,-10.58334 -0.11705,-0.10723 -0.22271,-0.15968 -0.31781,-0.16588 z m 0,10.58333 c -0.91931,-0.06 -0.81365,4.20913 0.31781,5.24568 3.85079,3.52778 14.198619,10.58333 14.198619,10.58333 0,0 10.34732,-7.05554 14.1981,-10.58333 1.248503,-1.14378 1.248505,-6.22358 0,-5.07979 -3.850791,3.52778 -14.1981,10.58333 -14.1981,10.58333 0,0 -10.347829,-7.05557 -14.198619,-10.58333 -0.11705,-0.10723 -0.22271,-0.15968 -0.31781,-0.16589 z"
       id="rect1216-4" />
  </g>
</svg>
