<?xml version="1.0" encoding="UTF-8" standalone="no"?>
<!-- Created with Inkscape (http://www.inkscape.org/) -->

<svg
   xmlns:dc="http://purl.org/dc/elements/1.1/"
   xmlns:cc="http://creativecommons.org/ns#"
   xmlns:rdf="http://www.w3.org/1999/02/22-rdf-syntax-ns#"
   xmlns:svg="http://www.w3.org/2000/svg"
   xmlns="http://www.w3.org/2000/svg"
   xmlns:sodipodi="http://sodipodi.sourceforge.net/DTD/sodipodi-0.dtd"
   xmlns:inkscape="http://www.inkscape.org/namespaces/inkscape"
   width="210mm"
   height="297mm"
   viewBox="0 0 210 297"
   version="1.1"
   id="svg8"
   inkscape:version="0.92.2 (5c3e80d, 2017-08-06)"
   sodipodi:docname="logoWhite.svg"
   inkscape:export-filename="C:\Users\Jena\Documents\ECP\img\Logo\PNG\logoWhite.png"
   inkscape:export-xdpi="96"
   inkscape:export-ydpi="96">
  <defs
     id="defs2" />
  <sodipodi:namedview
     id="base"
     pagecolor="#ffffff"
     bordercolor="#666666"
     borderopacity="1.0"
     inkscape:pageopacity="0.0"
     inkscape:pageshadow="2"
     inkscape:zoom="0.78308081"
     inkscape:cx="-491.43158"
     inkscape:cy="586.39982"
     inkscape:document-units="mm"
     inkscape:current-layer="layer1"
     showgrid="false"
     showguides="false"
     inkscape:snap-bbox="true"
     inkscape:bbox-nodes="true"
     inkscape:snap-object-midpoints="false"
     inkscape:snap-bbox-edge-midpoints="false"
     inkscape:snap-nodes="false"
     inkscape:window-width="1366"
     inkscape:window-height="706"
     inkscape:window-x="-8"
     inkscape:window-y="-8"
     inkscape:window-maximized="1" />
  <metadata
     id="metadata5">
    <rdf:RDF>
      <cc:Work
         rdf:about="">
        <dc:format>image/svg+xml</dc:format>
        <dc:type
           rdf:resource="http://purl.org/dc/dcmitype/StillImage" />
        <dc:title></dc:title>
      </cc:Work>
    </rdf:RDF>
  </metadata>
  <g
     inkscape:label="Layer 1"
     inkscape:groupmode="layer"
     id="layer1">
    <text
       xml:space="preserve"
       style="font-style:normal;font-weight:normal;font-size:10.58333302px;line-height:1.25;font-family:sans-serif;letter-spacing:0px;word-spacing:0px;fill:#000000;fill-opacity:1;stroke:none;stroke-width:0.26458332"
       x="-189.20993"
       y="136.17155"
       id="text878"><tspan
         sodipodi:role="line"
         id="tspan876"
         x="-189.20993"
         y="145.82706"
         style="stroke-width:0.26458332" /></text>
    <path
       style="fill:#f6f6f6;fill-opacity:1;stroke:none;stroke-width:0.79374999;stroke-miterlimit:4;stroke-dasharray:none;stroke-opacity:1"
       d="m -177.38415,149.68666 v 27.95902 c 0,-0.23707 0.008,-0.41477 0.0253,-0.5333 0.0169,-0.13547 0.0678,-0.33047 0.15244,-0.58447 0.18627,-0.5588 0.53328,-1.22766 1.04128,-2.00659 0.6604,-1.03293 1.05826,-1.68502 1.19373,-1.95595 0.82973,-1.76107 1.48182,-3.11557 1.95595,-4.06384 0.762,-1.55787 1.43925,-2.86152 2.03192,-3.91139 0.2032,0.2032 0.34735,0.42336 0.43202,0.66043 0.1016,0.23706 0.15193,0.49916 0.15193,0.78703 0,0.67733 -0.30456,1.57474 -0.91416,2.69234 l -1.42265,2.59106 c -0.0508,0.11853 -0.65153,1.21042 -1.80299,3.27628 -0.79587,1.4224 -1.19373,2.54888 -1.19373,3.37861 v 0.30489 c 0.99907,-0.47413 1.56624,-0.73675 1.7017,-0.78755 0.57574,-0.23707 1.10045,-0.35553 1.57459,-0.35553 0.52493,0 1.10939,0.14363 1.75286,0.4315 0.6604,0.27093 1.2108,0.46592 1.65106,0.58446 0.44027,0.11853 0.91414,0.17776 1.42214,0.17776 0.54186,0 1.16827,-0.10169 1.87947,-0.30489 0.0169,0.1016 0.0426,0.1949 0.0765,0.27957 0.22013,0.16933 0.44029,0.33026 0.66043,0.48266 0.0169,0.0508 0.0253,0.12681 0.0253,0.22841 0,0.32173 -0.12686,0.59274 -0.38086,0.81287 -0.254,0.22013 -0.55068,0.36376 -0.88935,0.4315 -0.32173,0.0677 -0.66036,0.1018 -1.01596,0.1018 -0.72813,0 -1.61715,-0.22855 -2.66702,-0.68575 -0.9144,-0.38946 -1.46479,-0.61801 -1.65106,-0.68574 -0.16933,-0.0677 -0.40627,-0.1018 -0.71107,-0.1018 -0.54186,0 -1.29513,0.25422 -2.26033,0.76222 -0.9652,0.49107 -1.6849,0.77046 -2.15904,0.83819 -0.1524,-0.4572 -0.30493,-0.93997 -0.45733,-1.44797 -0.13547,-0.508 -0.20309,-0.97348 -0.20309,-1.39681 v 5.49062 h 33.44964 v -33.44964 z m 9.1183,12.89689 c 0.52494,0 1.43964,0.22015 2.74351,0.66042 0.7112,0.23707 1.29514,0.35554 1.75234,0.35554 h 4.72426 c 0.508,0 1.22771,-0.0425 2.15904,-0.12713 0.93134,-0.0847 1.62588,-0.12712 2.08308,-0.12712 0.3048,0 0.60936,-0.008 0.91416,-0.0253 l 0.96531,-0.0506 c 0.59267,0 1.04976,0.0928 1.3715,0.27906 0.33866,0.16933 0.5845,0.51686 0.7369,1.04179 -1.4732,0.33867 -3.10761,0.59238 -4.90254,0.76171 -1.79493,0.1524 -3.56407,0.22893 -5.3082,0.22893 h -1.0418 c -1.81187,0 -3.16637,-0.14415 -4.06384,-0.43201 -1.4224,-0.4572 -2.13372,-1.31216 -2.13372,-2.56522 z m -2.26032,10.28671 c 0.42333,0 1.00728,0.0341 1.75235,0.1018 0.762,0.0508 1.26993,0.076 1.52393,0.076 0.54187,0.0508 1.09227,0.0933 1.65107,0.12713 0.74506,0.13547 1.11776,0.43163 1.11776,0.88883 0,0.1016 -0.008,0.17813 -0.0253,0.22893 -0.0847,0.27093 -0.22881,0.4738 -0.43201,0.60926 -0.18627,0.11854 -0.41481,0.17777 -0.68575,0.17777 -0.27093,0 -0.55032,-0.0252 -0.83819,-0.076 -0.27093,-0.0677 -0.53355,-0.13536 -0.78755,-0.20309 -0.5588,-0.0677 -1.14274,-0.12697 -1.75234,-0.17777 -0.6096,-0.0508 -1.19407,-0.0765 -1.75287,-0.0765 -0.62653,0 -1.016,-0.076 -1.1684,-0.22841 -0.13547,-0.16933 -0.23664,-0.59287 -0.30438,-1.27021 0.54187,-0.11853 1.10904,-0.17776 1.70171,-0.17776 z"
       id="rect888"
       inkscape:connector-curvature="0" />
    <g
       aria-label="E"
       style="font-style:normal;font-variant:normal;font-weight:normal;font-stretch:normal;font-size:25.39999962px;line-height:1.25;font-family:Anne;-inkscape-font-specification:Anne;letter-spacing:0px;word-spacing:0px;fill:#000000;fill-opacity:1;stroke:none;stroke-width:0.26458332"
       id="text874"
       transform="translate(130.8113,-3.5501935)" />
    <path
       style="fill:#f6f6f6;fill-opacity:1;stroke:none;stroke-width:0.79374999;stroke-miterlimit:4;stroke-dasharray:none;stroke-opacity:1"
       d="m -142.87619,149.68666 v 26.48572 c 0,-1.4224 0.71971,-3.05681 2.15904,-4.90254 0.99907,-1.1684 1.71878,-2.01496 2.15904,-2.5399 0.94827,-1.13452 1.84568,-2.13363 2.69234,-2.99723 1.18534,-1.2192 2.3029,-2.20101 3.35277,-2.94607 1.30387,-0.93134 2.53151,-1.52419 3.68298,-1.77819 l 0.22841,0.25425 h 0.25425 c 0.37253,0.13547 0.64353,0.32155 0.81287,0.55862 0.18626,0.22013 0.27905,0.48275 0.27905,0.78755 0,0.42333 -0.18609,1.00728 -0.55862,1.75235 -0.49107,0.99906 -0.75368,1.54107 -0.78755,1.62574 -0.57573,1.6764 -1.15129,2.9549 -1.72703,3.83542 -0.94826,1.45627 -2.03228,2.25199 -3.25148,2.38745 -0.0339,-0.23706 -0.0506,-0.41476 -0.0506,-0.5333 0,-0.84666 0.35592,-1.80331 1.06712,-2.87011 0.7112,-0.94825 1.43039,-1.89652 2.15852,-2.84478 0.8636,-1.1684 1.38883,-2.15911 1.5751,-2.97191 -1.3716,0 -3.03956,0.97341 -5.00383,2.92075 -0.82973,0.8636 -1.65952,1.71906 -2.48925,2.56573 -1.3208,1.27 -2.32829,2.32833 -3.02256,3.175 -1.1176,1.3716 -1.84569,2.64119 -2.18436,3.80959 -0.1016,0.33867 -0.15245,0.64374 -0.15245,0.91467 0,0.74507 0.34702,1.32902 1.04128,1.75235 0.62654,0.37253 1.40548,0.55914 2.33681,0.55914 1.20227,0 3.01438,0.0425 5.43585,0.12712 2.42146,0.0847 4.25874,0.12661 5.51181,0.12661 0.54186,0 1.21072,-0.12686 2.00659,-0.38086 0.8128,-0.27093 1.40514,-0.40617 1.77767,-0.40617 0.2032,0 0.35574,0.008 0.45734,0.0253 -0.1524,0.89747 -0.76203,1.53226 -1.82883,1.90479 -0.79587,0.27094 -1.88776,0.4067 -3.27629,0.4067 -0.33867,0 -0.80466,-0.009 -1.39733,-0.0258 -0.59267,-0.0169 -0.99891,-0.0253 -1.21905,-0.0253 -0.79586,0 -1.70166,-0.0252 -2.71766,-0.076 -2.3876,-0.11853 -3.88625,-0.17777 -4.49585,-0.17777 -0.99907,0 -1.87131,-0.15253 -2.61638,-0.45733 -0.94826,-0.38947 -1.57467,-0.98232 -1.87947,-1.77819 -0.22013,-0.59267 -0.33021,-1.185 -0.33021,-1.77767 v 6.96392 h 33.44964 v -33.44964 z"
       id="path900"
       inkscape:connector-curvature="0" />
    <g
       aria-label="C"
       style="font-style:normal;font-variant:normal;font-weight:normal;font-stretch:normal;font-size:25.39999962px;line-height:1.25;font-family:Anne;-inkscape-font-specification:Anne;letter-spacing:0px;word-spacing:0px;fill:#000000;fill-opacity:1;stroke:none;stroke-width:0.26458332"
       id="text882"
       transform="translate(138.16834,-3.1437935)" />
    <path
       style="fill:#f6f6f6;fill-opacity:1;stroke:none;stroke-width:0.79374999;stroke-miterlimit:4;stroke-dasharray:none;stroke-opacity:1"
       d="m -108.36817,149.68666 v 29.91497 c 0,-0.94827 0.49116,-2.11668 1.4733,-3.50521 0.69426,-0.98214 1.14297,-1.66777 1.34617,-2.05724 0.4064,-0.77893 0.94002,-1.72719 1.60042,-2.84479 0.13546,-0.22013 1.10049,-1.76963 2.89542,-4.6483 0.67734,-1.08373 1.659654,-1.87106 2.946588,-2.36212 1.049867,-0.4064 2.311067,-0.60979 3.784267,-0.60979 1.490133,0 2.735072,0.2794 3.734138,0.8382 1.151467,0.64346 1.727026,1.54926 1.727026,2.71766 0,0.4572 -0.08491,0.93159 -0.254246,1.42265 -0.6096,1.71027 -1.752333,3.01392 -3.428733,3.91139 -1.490133,0.79587 -3.200554,1.19373 -5.130953,1.19373 -1.1176,0 -2.15864,-0.12686 -3.123837,-0.38086 -0.3556,-0.11853 -0.6266,-0.20293 -0.81287,-0.25373 -0.16933,-0.0508 -0.32187,-0.0765 -0.45733,-0.0765 -0.32174,0 -0.65197,0.27939 -0.99064,0.83819 -0.42333,0.6604 -0.83797,1.32087 -1.24437,1.98127 -0.49106,1.016 -0.97384,2.02349 -1.44797,3.02256 -0.62654,1.03293 -1.46471,1.6001 -2.51458,1.7017 -0.0339,-0.1524 -0.0596,-0.30441 -0.0765,-0.45681 -0.0169,-0.1524 -0.0253,-0.29655 -0.0253,-0.43202 v 3.53467 h 33.449632 v -33.44964 z m 13.919556,15.58923 c -1.388533,0 -2.717868,0.49955 -3.987868,1.49862 -1.270001,0.98213 -2.142238,2.15893 -2.616378,3.53053 -0.0677,0.2032 -0.1018,0.40658 -0.1018,0.60978 0,0.4572 0.2883,0.77066 0.86403,0.94 0.406397,0.11853 1.007124,0.17776 1.802988,0.17776 h 0.914672 c 1.3208,0 2.590903,-0.39786 3.810103,-1.19372 1.2192,-0.79587 2.108222,-1.81226 2.667022,-3.0484 0.1524,-0.33866 0.228409,-0.63483 0.228409,-0.88883 0,-0.38947 -0.177702,-0.70293 -0.533302,-0.93999 -0.4572,-0.28787 -1.270209,-0.50803 -2.438609,-0.66043 -0.1016,-0.0169 -0.21168,-0.0253 -0.330213,-0.0253 z"
       id="path902"
       inkscape:connector-curvature="0" />
    <g
       aria-label="P"
       style="font-style:normal;font-variant:normal;font-weight:normal;font-stretch:normal;font-size:25.39999962px;line-height:1.25;font-family:Anne;-inkscape-font-specification:Anne;letter-spacing:0px;word-spacing:0px;fill:#000000;fill-opacity:1;stroke:none;stroke-width:0.26458332"
       id="text886"
       transform="translate(80.053872,37.561255)" />
  </g>
</svg>
